<svg xmlns="http://www.w3.org/2000/svg" viewBox="0 0 511.17 442.01"><defs><style>.cls-1{opacity:0.3;}.cls-2{fill:#173054;}.cls-3{fill:#081830;}</style></defs><g id="Layer_2" data-name="Layer 2"><g id="Layer_1-2" data-name="Layer 1"><g class="cls-1"><path class="cls-2" d="M372,20,488.07,221,372,422H139.92l-116-201,116-201H372M383.57,0H128.38L.78,221l127.6,221H383.57l127.6-221L383.57,0Z"/></g><polygon class="cls-3" points="107.32 391.88 8.66 221 107.32 50.13 304.63 50.13 403.28 221 304.63 391.88 107.32 391.88"/><path class="cls-2" d="M300.3,57.63,394.62,221,300.3,384.38H111.65L17.32,221,111.65,57.63H300.3m8.66-15H103L0,221,103,399.38H309L411.94,221,309,42.63Z"/></g></g></svg>