<?xml version="1.0" encoding="utf-8"?>
<!-- Generator: Adobe Illustrator 26.0.0, SVG Export Plug-In . SVG Version: 6.00 Build 0)  -->
<svg version="1.1" id="Layer_1" xmlns="http://www.w3.org/2000/svg" xmlns:xlink="http://www.w3.org/1999/xlink" x="0px" y="0px"
	 viewBox="0 0 1000 1000" style="enable-background:new 0 0 1000 1000;" xml:space="preserve">
<style type="text/css">
	.st0{fill:url(#SVGID_1_);}
	.st1{fill:#FFFFFF;}
	.st2{fill:url(#SVGID_00000178165624645868906530000016721966295685201308_);}
	.st3{fill:url(#SVGID_00000072974289559786900950000013287663269712634498_);}
	.st4{fill-rule:evenodd;clip-rule:evenodd;fill:#FFFFFF;}
	.st5{fill:url(#SVGID_00000046325046533992487240000002555355278878353046_);}
</style>
<g>
	
		<linearGradient id="SVGID_1_" gradientUnits="userSpaceOnUse" x1="7.0933" y1="-334.9353" x2="1375.528" y2="1033.4994" gradientTransform="matrix(0 1 -1 0 705.0233 -47.052)">
		<stop  offset="1.104800e-03" style="stop-color:#FFE184"/>
		<stop  offset="0.2094" style="stop-color:#FDBA37"/>
		<stop  offset="0.3765" style="stop-color:#F05477"/>
		<stop  offset="0.5238" style="stop-color:#ED3894"/>
		<stop  offset="0.7394" style="stop-color:#8D509F"/>
		<stop  offset="1" style="stop-color:#5E5DA9"/>
	</linearGradient>
	<path class="st0" d="M50,942.3l0-884.7c0-4.2,3.4-7.6,7.6-7.6l884.7,0c4.2,0,7.6,3.4,7.6,7.6l0,884.7c0,4.2-3.4,7.6-7.6,7.6
		l-884.7,0C53.4,950,50,946.6,50,942.3z"/>
	<g>
		<path class="st1" d="M639.7,330.4c-17.1,0-30.9,13.8-30.9,30.9c0,17.1,13.8,30.9,30.9,30.9c17.1,0,30.9-13.8,30.9-30.9
			C670.6,344.2,656.8,330.4,639.7,330.4z"/>
		<path class="st1" d="M502.2,370.1c-71.6,0-129.9,58.3-129.9,129.9c0,71.6,58.3,129.9,129.9,129.9c71.6,0,129.9-58.3,129.9-129.9
			C632.1,428.4,573.8,370.1,502.2,370.1z M502.2,583.2c-45.9,0-83.2-37.3-83.2-83.2s37.3-83.2,83.2-83.2c45.9,0,83.2,37.3,83.2,83.2
			S548.1,583.2,502.2,583.2z"/>
		<path class="st1" d="M605.3,763.8H394.7c-87.4,0-158.5-71.1-158.5-158.5V394.7c0-87.4,71.1-158.5,158.5-158.5h210.7
			c87.4,0,158.5,71.1,158.5,158.5v210.7C763.8,692.7,692.7,763.8,605.3,763.8z M394.7,285.8c-60,0-108.8,48.8-108.8,108.8v210.7
			c0,60,48.8,108.8,108.8,108.8h210.7c60,0,108.9-48.8,108.9-108.8V394.7c0-60-48.8-108.8-108.9-108.8H394.7z"/>
	</g>
</g>
<g>
	
		<linearGradient id="SVGID_00000076578050989607498290000006648654992418248107_" gradientUnits="userSpaceOnUse" x1="488.9773" y1="-660.7087" x2="538.9728" y2="-610.7131" gradientTransform="matrix(0 1 -1 0 717.4666 -77.0927)">
		<stop  offset="0" style="stop-color:#35C6F4"/>
		<stop  offset="1" style="stop-color:#4478BC"/>
	</linearGradient>
	<path style="fill:url(#SVGID_00000076578050989607498290000006648654992418248107_);" d="M1325.9,456.5v-39.2
		c0-4.2,3.4-7.6,7.6-7.6h39.2c4.2,0,7.6,3.4,7.6,7.6v39.2c0,4.2-3.4,7.6-7.6,7.6h-39.2C1329.4,464.1,1325.9,460.7,1325.9,456.5z"/>
	<path class="st1" d="M1368.2,427.5c-0.9,0.4-2,0.7-3,0.9c0.5-0.1,1.2-1,1.5-1.3c0.4-0.5,0.8-1.2,1-1.8c0-0.1,0-0.1,0-0.2
		c-0.1,0-0.1,0-0.2,0c-1.1,0.6-2.3,1.1-3.6,1.4c-0.1,0-0.2,0-0.2-0.1c-0.1-0.1-0.2-0.2-0.3-0.3c-0.5-0.4-1.1-0.8-1.7-1.1
		c-0.8-0.3-1.7-0.5-2.6-0.4c-0.9,0.1-1.7,0.3-2.5,0.7c-0.8,0.4-1.5,1-2,1.7c-0.6,0.7-1,1.5-1.2,2.4c-0.2,0.9-0.2,1.7-0.1,2.6
		c0,0.1,0,0.2-0.1,0.1c-4.9-0.7-8.9-2.5-12.2-6.2c-0.1-0.2-0.2-0.2-0.3,0c-1.4,2.2-0.7,5.6,1.1,7.3c0.2,0.2,0.5,0.5,0.8,0.7
		c-0.1,0-1.3-0.1-2.4-0.7c-0.1-0.1-0.2,0-0.2,0.1c0,0.2,0,0.4,0,0.7c0.3,2.2,1.8,4.2,3.9,5c0.2,0.1,0.5,0.2,0.8,0.2
		c-0.5,0.1-1,0.2-2.3,0.1c-0.2,0-0.2,0.1-0.2,0.2c1,2.8,3.2,3.6,4.9,4.1c0.2,0,0.4,0,0.7,0.1c0,0,0,0,0,0c-0.5,0.8-2.4,1.5-3.3,1.8
		c-1.6,0.6-3.4,0.8-5,0.6c-0.3,0-0.3,0-0.4,0c-0.1,0,0,0.1,0.1,0.2c0.3,0.2,0.7,0.4,1.1,0.6c1.1,0.6,2.2,1,3.4,1.4
		c6.1,1.7,12.9,0.4,17.5-4.1c3.6-3.6,4.8-8.5,4.8-13.4c0-0.2,0.2-0.3,0.4-0.4c0.9-0.7,1.7-1.5,2.4-2.5c0.2-0.2,0.2-0.4,0.2-0.5
		c0,0,0,0,0,0C1368.4,427.5,1368.4,427.5,1368.2,427.5z"/>
</g>
<g>
	
		<linearGradient id="SVGID_00000025417375754570788550000014482504998774267302_" gradientUnits="userSpaceOnUse" x1="476.5339" y1="-728.5271" x2="526.5296" y2="-678.5314" gradientTransform="matrix(0 1 -1 0 747.5074 -64.6495)">
		<stop  offset="0" style="stop-color:#6FC05E"/>
		<stop  offset="1" style="stop-color:#0BB25B"/>
	</linearGradient>
	<path style="fill:url(#SVGID_00000025417375754570788550000014482504998774267302_);" d="M1423.8,456.5v-39.2
		c0-4.2,3.4-7.6,7.6-7.6h39.2c4.2,0,7.6,3.4,7.6,7.6v39.2c0,4.2-3.4,7.6-7.6,7.6l-39.2,0C1427.2,464.1,1423.8,460.7,1423.8,456.5z"
		/>
	<path class="st1" d="M1436.3,452.3l2.3-8.5c-1.3-2.3-2-4.9-2-7.6c0-8.6,7-15.6,15.6-15.6c8.6,0,15.6,7,15.6,15.6
		c0,8.6-7,15.6-15.6,15.6c-2.6,0-5.1-0.7-7.4-1.9L1436.3,452.3z M1445.3,446.8l0.5,0.3c2,1.2,4.2,1.8,6.5,1.8
		c7,0,12.7-5.7,12.7-12.7c0-7-5.7-12.7-12.7-12.7c-7,0-12.7,5.7-12.7,12.7c0,2.3,0.6,4.6,1.9,6.6l0.3,0.5l-1.3,4.7L1445.3,446.8z"/>
	<path class="st4" d="M1458.1,438.4c-0.6-0.4-1.5-0.8-2.2-0.5c-0.6,0.2-1,1.1-1.3,1.6c-0.2,0.2-0.4,0.3-0.7,0.2
		c-2.2-0.9-3.9-2.3-5.1-4.3c-0.2-0.3-0.2-0.6,0.1-0.8c0.4-0.4,0.8-0.9,0.9-1.5c0.1-0.6-0.2-1.3-0.4-1.8c-0.3-0.7-0.6-1.6-1.3-2
		c-0.6-0.3-1.4-0.2-1.9,0.3c-0.9,0.8-1.4,1.9-1.4,3.1c0,0.3,0,0.7,0.1,1c0.2,0.8,0.5,1.5,1,2.2c0.3,0.5,0.6,1,1,1.5
		c1.2,1.6,2.6,3,4.3,4c0.8,0.5,1.7,1,2.7,1.3c1.1,0.3,2,0.7,3.1,0.5c1.2-0.2,2.4-1,2.8-2.1c0.1-0.3,0.2-0.7,0.1-1.1
		C1459.7,439.2,1458.7,438.8,1458.1,438.4z"/>
</g>
<g>
	
		<linearGradient id="SVGID_00000034804088690341135600000011140758359819094707_" gradientUnits="userSpaceOnUse" x1="428.9527" y1="-587.3805" x2="478.8552" y2="-537.4781" gradientTransform="matrix(0 1 -1 0 692.5843 -17.0216)">
		<stop  offset="0" style="stop-color:#4272B8"/>
		<stop  offset="0.1503" style="stop-color:#406DB5"/>
		<stop  offset="0.3948" style="stop-color:#3D60AC"/>
		<stop  offset="0.7011" style="stop-color:#394A9D"/>
		<stop  offset="1" style="stop-color:#342F8F"/>
	</linearGradient>
	<path style="fill:url(#SVGID_00000034804088690341135600000011140758359819094707_);" d="M1227.8,456.3v-38.9
		c0-4.3,3.5-7.8,7.8-7.8h38.9c4.3,0,7.8,3.5,7.8,7.8l0,38.9c0,4.3-3.5,7.8-7.8,7.8h-15.2l-4.6-1.1l-3.9,1.1l-15.2,0
		C1231.3,464.1,1227.8,460.6,1227.8,456.3z"/>
	<g>
		<path class="st1" d="M1265.6,445.7l1.2-7.9h-7.6v-5.1c0-2.2,1.1-4.3,4.4-4.3h3.4v-6.7c0,0-3.1-0.5-6.1-0.5
			c-6.2,0-10.3,3.8-10.3,10.6v6h-6.9v7.9h6.9v18.5h8.5v-18.5H1265.6z"/>
	</g>
</g>
</svg>
