<?xml version="1.0" encoding="utf-8"?>
<!-- Generator: Adobe Illustrator 26.0.0, SVG Export Plug-In . SVG Version: 6.00 Build 0)  -->
<svg version="1.1" id="Layer_1" xmlns="http://www.w3.org/2000/svg" xmlns:xlink="http://www.w3.org/1999/xlink" x="0px" y="0px"
	 viewBox="0 0 1000 1000" style="enable-background:new 0 0 1000 1000;" xml:space="preserve">
<style type="text/css">
	.st0{fill:url(#SVGID_1_);}
	.st1{fill:#FFFFFF;}
	.st2{fill:url(#SVGID_00000153693410040225053940000017946086167050265003_);}
	.st3{fill:url(#SVGID_00000142858006183733057680000018434301174596065705_);}
	.st4{fill-rule:evenodd;clip-rule:evenodd;fill:#FFFFFF;}
</style>
<g>
	
		<linearGradient id="SVGID_1_" gradientUnits="userSpaceOnUse" x1="453.7886" y1="-481.9719" x2="530.188" y2="-405.5725" gradientTransform="matrix(0 1 -1 0 705.0233 -47.052)">
		<stop  offset="1.104800e-03" style="stop-color:#FFE184"/>
		<stop  offset="0.2094" style="stop-color:#FDBA37"/>
		<stop  offset="0.3765" style="stop-color:#F05477"/>
		<stop  offset="0.5238" style="stop-color:#ED3894"/>
		<stop  offset="0.7394" style="stop-color:#8D509F"/>
		<stop  offset="1" style="stop-color:#5E5DA9"/>
	</linearGradient>
	<path class="st0" d="M1129.6,456.5l0-39.2c0-4.2,3.4-7.6,7.6-7.6l39.2,0c4.2,0,7.6,3.4,7.6,7.6l0,39.2c0,4.2-3.4,7.6-7.6,7.6
		l-39.2,0C1133,464.1,1129.6,460.7,1129.6,456.5z"/>
	<g>
		<path class="st1" d="M1165.3,426.6c-1,0-1.9,0.8-1.9,1.9c0,1,0.8,1.9,1.9,1.9c1,0,1.9-0.8,1.9-1.9
			C1167.2,427.5,1166.3,426.6,1165.3,426.6z"/>
		<path class="st1" d="M1157,429c-4.3,0-7.9,3.5-7.9,7.9c0,4.3,3.5,7.9,7.9,7.9c4.3,0,7.9-3.5,7.9-7.9
			C1164.8,432.5,1161.3,429,1157,429z M1157,441.9c-2.8,0-5-2.3-5-5c0-2.8,2.3-5,5-5c2.8,0,5,2.3,5,5
			C1162,439.7,1159.8,441.9,1157,441.9z"/>
		<path class="st1" d="M1163.2,452.9h-12.8c-5.3,0-9.6-4.3-9.6-9.6v-12.8c0-5.3,4.3-9.6,9.6-9.6h12.8c5.3,0,9.6,4.3,9.6,9.6v12.8
			C1172.8,448.6,1168.5,452.9,1163.2,452.9z M1150.5,423.9c-3.6,0-6.6,3-6.6,6.6v12.8c0,3.6,3,6.6,6.6,6.6h12.8c3.6,0,6.6-3,6.6-6.6
			v-12.8c0-3.6-3-6.6-6.6-6.6H1150.5z"/>
	</g>
</g>
<g>
	
		<linearGradient id="SVGID_00000013158701693075469170000008175317099276034457_" gradientUnits="userSpaceOnUse" x1="129.3405" y1="-230.2856" x2="1024.845" y2="665.2189" gradientTransform="matrix(0 1 -1 0 717.4666 -77.0927)">
		<stop  offset="0" style="stop-color:#35C6F4"/>
		<stop  offset="1" style="stop-color:#4478BC"/>
	</linearGradient>
	<path style="fill:url(#SVGID_00000013158701693075469170000008175317099276034457_);" d="M50,942.3V57.7c0-4.2,3.4-7.6,7.6-7.6
		h884.7c4.2,0,7.6,3.4,7.6,7.6v884.7c0,4.2-3.4,7.6-7.6,7.6H57.6C53.4,950,50,946.6,50,942.3z"/>
	<path class="st1" d="M748.6,345.8c-15.6,7-32.8,11.3-49.6,14.2c8-1.3,19.7-15.8,24.4-21.6c7.2-8.9,13.1-19.1,16.5-30
		c0.4-0.9,0.7-1.9-0.1-2.6c-1.1-0.4-1.8-0.2-2.6,0.2c-18.8,10.1-38.2,17.4-58.9,22.5c-1.7,0.4-3,0-4.1-1.1c-1.7-1.9-3.3-3.8-5.1-5.3
		c-8.7-7.4-18-13.2-28.5-17.5c-13.8-5.6-28.9-8-43.7-7c-14.5,0.9-28.7,5-41.5,11.7c-12.9,6.7-24.3,16.1-33.5,27.3
		c-9.4,11.7-16.4,25.4-20,40c-3.4,14.1-3.2,28-1.1,42.3c0.3,2.4,0.1,2.7-2,2.4c-80.8-12-147.8-40.9-202.2-102.9
		c-2.4-2.7-3.6-2.7-5.6,0.2c-23.8,35.7-12.3,93,17.5,121.2c4,3.8,8,7.5,12.4,10.9c-1.6,0.3-21.4-1.8-39-10.9c-2.4-1.5-3.5-0.6-3.8,2
		c-0.2,3.9,0.1,7.4,0.6,11.6c4.6,36.2,29.6,69.6,63.9,82.7c4.1,1.7,8.6,3.2,13,4c-7.8,1.7-15.9,2.9-38.3,1.2
		c-2.8-0.5-3.9,0.9-2.8,3.5c16.8,45.9,53.2,59.6,80.4,67.3c3.6,0.6,7.3,0.6,10.9,1.5c-0.2,0.3-0.4,0.3-0.6,0.6
		c-9,13.8-40.3,24-54.9,29.1c-26.5,9.3-55.4,13.4-83.4,10.7c-4.5-0.7-5.4-0.6-6.6,0c-1.2,0.8-0.2,1.8,1.3,3
		c5.7,3.8,11.5,7.1,17.4,10.3c17.8,9.4,36.4,16.9,55.7,22.3c100.2,27.7,213,7.3,288.3-67.4c59.1-58.7,79.8-139.6,79.8-220.7
		c0-3.2,3.7-4.9,6-6.6c15.4-11.5,27.8-25.4,39.2-40.8c2.6-3.5,2.6-6.5,2.6-7.8c0-0.2,0-0.4,0-0.4
		C750.6,344.5,750.6,344.9,748.6,345.8z"/>
</g>
<g>
	
		<linearGradient id="SVGID_00000138555939553322558580000015557995735058936237_" gradientUnits="userSpaceOnUse" x1="476.5339" y1="-728.5271" x2="526.5296" y2="-678.5314" gradientTransform="matrix(0 1 -1 0 747.5074 -64.6495)">
		<stop  offset="0" style="stop-color:#6FC05E"/>
		<stop  offset="1" style="stop-color:#0BB25B"/>
	</linearGradient>
	<path style="fill:url(#SVGID_00000138555939553322558580000015557995735058936237_);" d="M1423.8,456.5v-39.2
		c0-4.2,3.4-7.6,7.6-7.6h39.2c4.2,0,7.6,3.4,7.6,7.6v39.2c0,4.2-3.4,7.6-7.6,7.6l-39.2,0C1427.2,464.1,1423.8,460.7,1423.8,456.5z"
		/>
	<path class="st1" d="M1436.3,452.3l2.3-8.5c-1.3-2.3-2-4.9-2-7.6c0-8.6,7-15.6,15.6-15.6c8.6,0,15.6,7,15.6,15.6
		c0,8.6-7,15.6-15.6,15.6c-2.6,0-5.1-0.7-7.4-1.9L1436.3,452.3z M1445.3,446.8l0.5,0.3c2,1.2,4.2,1.8,6.5,1.8
		c7,0,12.7-5.7,12.7-12.7c0-7-5.7-12.7-12.7-12.7c-7,0-12.7,5.7-12.7,12.7c0,2.3,0.6,4.6,1.9,6.6l0.3,0.5l-1.3,4.7L1445.3,446.8z"/>
	<path class="st4" d="M1458.1,438.4c-0.6-0.4-1.5-0.8-2.2-0.5c-0.6,0.2-1,1.1-1.3,1.6c-0.2,0.2-0.4,0.3-0.7,0.2
		c-2.2-0.9-3.9-2.3-5.1-4.3c-0.2-0.3-0.2-0.6,0.1-0.8c0.4-0.4,0.8-0.9,0.9-1.5c0.1-0.6-0.2-1.3-0.4-1.8c-0.3-0.7-0.6-1.6-1.3-2
		c-0.6-0.3-1.4-0.2-1.9,0.3c-0.9,0.8-1.4,1.9-1.4,3.1c0,0.3,0,0.7,0.1,1c0.2,0.8,0.5,1.5,1,2.2c0.3,0.5,0.6,1,1,1.5
		c1.2,1.6,2.6,3,4.3,4c0.8,0.5,1.7,1,2.7,1.3c1.1,0.3,2,0.7,3.1,0.5c1.2-0.2,2.4-1,2.8-2.1c0.1-0.3,0.2-0.7,0.1-1.1
		C1459.7,439.2,1458.7,438.8,1458.1,438.4z"/>
</g>
<g>
	<path class="st4" d="M-580.5,533.7c-0.5,1.6-0.9,2.9-1.2,4.2c-20.1,78.6-22.3,96.1-42.9,132.5c-9.8,17.3-20.9,33.8-33.1,49.5
		c-1.4,1.8-2.7,4.1-5.4,3.5c-3-0.6-3.3-3.4-3.6-5.8c-3.3-23.9-5.1-47.8-4.3-71.9c1-31.4,4.9-42.2,45.4-212.4
		c0.6-2.6-0.1-4.8-0.9-7.1c-9.7-26.1-11.6-52.7-3.1-79.6c18.3-58.1,84.2-62.5,95.7-14.6c7.1,29.6-11.7,68.4-26.1,125.7
		c-11.9,47.3,43.7,80.9,91.3,46.4c43.9-31.8,60.9-108.1,57.7-162.2c-6.4-107.8-124.6-131.1-199.6-96.4
		c-86,39.8-105.6,146.4-66.7,195.1c4.9,6.2,8.7,10,7.1,16.3c-2.5,9.8-4.7,19.6-7.4,29.3c-2,7.2-8.1,9.8-15.3,6.9
		c-14.3-5.8-26.2-14.9-35.9-26.9c-33-40.8-42.4-121.6,1.2-190c48.3-75.8,138.2-106.4,220.2-97.1c98,11.1,159.9,78.1,171.5,154
		c5.3,34.6,1.5,119.9-47.1,180.2c-55.9,69.3-146.4,73.9-188.2,31.4C-574.8,541.5-577.3,537.6-580.5,533.7z"/>
</g>
</svg>
