<?xml version="1.0" encoding="utf-8"?>
<!-- Generator: Adobe Illustrator 26.0.0, SVG Export Plug-In . SVG Version: 6.00 Build 0)  -->
<svg version="1.1" id="Layer_1" xmlns="http://www.w3.org/2000/svg" xmlns:xlink="http://www.w3.org/1999/xlink" x="0px" y="0px"
	 viewBox="0 0 1000 1000" style="enable-background:new 0 0 1000 1000;" xml:space="preserve">
<style type="text/css">
	.st0{fill:url(#SVGID_1_);}
	.st1{fill:#FFFFFF;}
	.st2{fill:url(#SVGID_00000033358893464454319900000014169439898348725634_);}
	.st3{fill-rule:evenodd;clip-rule:evenodd;fill:#FFFFFF;}
</style>
<g>
	
		<linearGradient id="SVGID_1_" gradientUnits="userSpaceOnUse" x1="453.7886" y1="-481.9719" x2="530.188" y2="-405.5725" gradientTransform="matrix(0 1 -1 0 705.0233 -47.052)">
		<stop  offset="1.104800e-03" style="stop-color:#FFE184"/>
		<stop  offset="0.2094" style="stop-color:#FDBA37"/>
		<stop  offset="0.3765" style="stop-color:#F05477"/>
		<stop  offset="0.5238" style="stop-color:#ED3894"/>
		<stop  offset="0.7394" style="stop-color:#8D509F"/>
		<stop  offset="1" style="stop-color:#5E5DA9"/>
	</linearGradient>
	<path class="st0" d="M1129.6,456.5l0-39.2c0-4.2,3.4-7.6,7.6-7.6l39.2,0c4.2,0,7.6,3.4,7.6,7.6l0,39.2c0,4.2-3.4,7.6-7.6,7.6
		l-39.2,0C1133,464.1,1129.6,460.7,1129.6,456.5z"/>
	<g>
		<path class="st1" d="M1165.3,426.6c-1,0-1.9,0.8-1.9,1.9c0,1,0.8,1.9,1.9,1.9c1,0,1.9-0.8,1.9-1.9
			C1167.2,427.5,1166.3,426.6,1165.3,426.6z"/>
		<path class="st1" d="M1157,429c-4.3,0-7.9,3.5-7.9,7.9c0,4.3,3.5,7.9,7.9,7.9c4.3,0,7.9-3.5,7.9-7.9
			C1164.8,432.5,1161.3,429,1157,429z M1157,441.9c-2.8,0-5-2.3-5-5c0-2.8,2.3-5,5-5c2.8,0,5,2.3,5,5
			C1162,439.7,1159.8,441.9,1157,441.9z"/>
		<path class="st1" d="M1163.2,452.9h-12.8c-5.3,0-9.6-4.3-9.6-9.6v-12.8c0-5.3,4.3-9.6,9.6-9.6h12.8c5.3,0,9.6,4.3,9.6,9.6v12.8
			C1172.8,448.6,1168.5,452.9,1163.2,452.9z M1150.5,423.9c-3.6,0-6.6,3-6.6,6.6v12.8c0,3.6,3,6.6,6.6,6.6h12.8c3.6,0,6.6-3,6.6-6.6
			v-12.8c0-3.6-3-6.6-6.6-6.6H1150.5z"/>
	</g>
</g>
<g>
	
		<linearGradient id="SVGID_00000123430001433730693260000014829360798266054290_" gradientUnits="userSpaceOnUse" x1="116.8949" y1="-200.2444" x2="1012.4018" y2="695.2624" gradientTransform="matrix(0 1 -1 0 747.5074 -64.6495)">
		<stop  offset="0" style="stop-color:#6FC05E"/>
		<stop  offset="1" style="stop-color:#0BB25B"/>
	</linearGradient>
	<path style="fill:url(#SVGID_00000123430001433730693260000014829360798266054290_);" d="M50,942.4V57.6c0-4.2,3.4-7.6,7.6-7.6
		h884.7c4.2,0,7.6,3.4,7.6,7.6v884.7c0,4.2-3.4,7.6-7.6,7.6l-884.7,0C53.4,950,50,946.6,50,942.4z"/>
	<path class="st1" d="M256.9,754.6l37.5-140c-21.2-38.3-32.4-81.3-32.4-124.9c0-142.5,116-258.5,258.5-258.5
		c142.5,0,258.5,116,258.5,258.5c0,142.5-116,258.5-258.5,258.5c-42.8,0-85-10.8-122.9-31.3L256.9,754.6z M404.6,664.5l8.9,5.3
		c32.5,19.4,69.5,29.6,107,29.6c115.6,0,209.6-94,209.6-209.6s-94-209.6-209.6-209.6c-115.6,0-209.6,94-209.6,209.6
		c0,38.2,10.6,75.7,30.7,108.7l5.4,8.9L326,685.6L404.6,664.5z"/>
	<path class="st3" d="M616.6,525.7c-10.6-6.4-24.5-13.5-37-8.3c-9.6,3.9-15.8,19-22,26.7c-3.2,3.9-7,4.6-11.9,2.6
		c-36.1-14.4-63.8-38.5-83.7-71.7c-3.4-5.2-2.8-9.2,1.3-14c6-7.1,13.6-15.1,15.2-24.7c1.6-9.5-2.8-20.7-6.8-29.2
		c-5-10.9-10.7-26.4-21.6-32.5c-10-5.7-23.2-2.5-32.1,4.8c-15.4,12.5-22.8,32.2-22.6,51.6c0.1,5.5,0.7,11,2,16.4
		c3.1,12.8,9,24.8,15.7,36.2c5,8.6,10.5,16.9,16.4,24.9c19.3,26.2,43.3,49,71.1,66.1c13.9,8.5,28.9,16,44.4,21.1
		c17.4,5.7,32.9,11.7,51.6,8.2c19.7-3.7,39-15.9,46.8-34.8c2.3-5.6,3.5-11.9,2.2-17.8C643.1,538.9,626.5,531.7,616.6,525.7z"/>
</g>
<g>
	<path class="st3" d="M-580.5,533.7c-0.5,1.6-0.9,2.9-1.2,4.2c-20.1,78.6-22.3,96.1-42.9,132.5c-9.8,17.3-20.9,33.8-33.1,49.5
		c-1.4,1.8-2.7,4.1-5.4,3.5c-3-0.6-3.3-3.4-3.6-5.8c-3.3-23.9-5.1-47.8-4.3-71.9c1-31.4,4.9-42.2,45.4-212.4
		c0.6-2.6-0.1-4.8-0.9-7.1c-9.7-26.1-11.6-52.7-3.1-79.6c18.3-58.1,84.2-62.5,95.7-14.6c7.1,29.6-11.7,68.4-26.1,125.7
		c-11.9,47.3,43.7,80.9,91.3,46.4c43.9-31.8,60.9-108.1,57.7-162.2c-6.4-107.8-124.6-131.1-199.6-96.4
		c-86,39.8-105.6,146.4-66.7,195.1c4.9,6.2,8.7,10,7.1,16.3c-2.5,9.8-4.7,19.6-7.4,29.3c-2,7.2-8.1,9.8-15.3,6.9
		c-14.3-5.8-26.2-14.9-35.9-26.9c-33-40.8-42.4-121.6,1.2-190c48.3-75.8,138.2-106.4,220.2-97.1c98,11.1,159.9,78.1,171.5,154
		c5.3,34.6,1.5,119.9-47.1,180.2c-55.9,69.3-146.4,73.9-188.2,31.4C-574.8,541.5-577.3,537.6-580.5,533.7z"/>
</g>
</svg>
