<?xml version="1.0" encoding="utf-8"?>
<!-- Generator: Adobe Illustrator 26.0.0, SVG Export Plug-In . SVG Version: 6.00 Build 0)  -->
<svg version="1.1" id="Layer_1" xmlns="http://www.w3.org/2000/svg" xmlns:xlink="http://www.w3.org/1999/xlink" x="0px" y="0px"
	 viewBox="0 0 1000 1000" style="enable-background:new 0 0 1000 1000;" xml:space="preserve">
<style type="text/css">
	.st0{fill:url(#SVGID_1_);}
	.st1{fill:#FFFFFF;}
	.st2{fill:url(#SVGID_00000167384399755042897750000008992402539002114440_);}
	.st3{fill:url(#SVGID_00000062870871659831176290000016739370255852928640_);}
	.st4{fill-rule:evenodd;clip-rule:evenodd;fill:#FFFFFF;}
	.st5{fill:url(#SVGID_00000086649424147830254300000017221917503172974526_);}
</style>
<g>
	
		<linearGradient id="SVGID_1_" gradientUnits="userSpaceOnUse" x1="453.7886" y1="-481.9719" x2="530.188" y2="-405.5725" gradientTransform="matrix(0 1 -1 0 705.0233 -47.052)">
		<stop  offset="1.104800e-03" style="stop-color:#FFE184"/>
		<stop  offset="0.2094" style="stop-color:#FDBA37"/>
		<stop  offset="0.3765" style="stop-color:#F05477"/>
		<stop  offset="0.5238" style="stop-color:#ED3894"/>
		<stop  offset="0.7394" style="stop-color:#8D509F"/>
		<stop  offset="1" style="stop-color:#5E5DA9"/>
	</linearGradient>
	<path class="st0" d="M1129.6,456.5l0-39.2c0-4.2,3.4-7.6,7.6-7.6l39.2,0c4.2,0,7.6,3.4,7.6,7.6l0,39.2c0,4.2-3.4,7.6-7.6,7.6
		l-39.2,0C1133,464.1,1129.6,460.7,1129.6,456.5z"/>
	<g>
		<path class="st1" d="M1165.3,426.6c-1,0-1.9,0.8-1.9,1.9c0,1,0.8,1.9,1.9,1.9c1,0,1.9-0.8,1.9-1.9
			C1167.2,427.5,1166.3,426.6,1165.3,426.6z"/>
		<path class="st1" d="M1157,429c-4.3,0-7.9,3.5-7.9,7.9c0,4.3,3.5,7.9,7.9,7.9c4.3,0,7.9-3.5,7.9-7.9
			C1164.8,432.5,1161.3,429,1157,429z M1157,441.9c-2.8,0-5-2.3-5-5c0-2.8,2.3-5,5-5c2.8,0,5,2.3,5,5
			C1162,439.7,1159.8,441.9,1157,441.9z"/>
		<path class="st1" d="M1163.2,452.9h-12.8c-5.3,0-9.6-4.3-9.6-9.6v-12.8c0-5.3,4.3-9.6,9.6-9.6h12.8c5.3,0,9.6,4.3,9.6,9.6v12.8
			C1172.8,448.6,1168.5,452.9,1163.2,452.9z M1150.5,423.9c-3.6,0-6.6,3-6.6,6.6v12.8c0,3.6,3,6.6,6.6,6.6h12.8c3.6,0,6.6-3,6.6-6.6
			v-12.8c0-3.6-3-6.6-6.6-6.6H1150.5z"/>
	</g>
</g>
<g>
	
		<linearGradient id="SVGID_00000177467441264678147180000003960135925432821646_" gradientUnits="userSpaceOnUse" x1="488.9773" y1="-660.7087" x2="538.9728" y2="-610.7131" gradientTransform="matrix(0 1 -1 0 717.4666 -77.0927)">
		<stop  offset="0" style="stop-color:#35C6F4"/>
		<stop  offset="1" style="stop-color:#4478BC"/>
	</linearGradient>
	<path style="fill:url(#SVGID_00000177467441264678147180000003960135925432821646_);" d="M1325.9,456.5v-39.2
		c0-4.2,3.4-7.6,7.6-7.6h39.2c4.2,0,7.6,3.4,7.6,7.6v39.2c0,4.2-3.4,7.6-7.6,7.6h-39.2C1329.4,464.1,1325.9,460.7,1325.9,456.5z"/>
	<path class="st1" d="M1368.2,427.5c-0.9,0.4-2,0.7-3,0.9c0.5-0.1,1.2-1,1.5-1.3c0.4-0.5,0.8-1.2,1-1.8c0-0.1,0-0.1,0-0.2
		c-0.1,0-0.1,0-0.2,0c-1.1,0.6-2.3,1.1-3.6,1.4c-0.1,0-0.2,0-0.2-0.1c-0.1-0.1-0.2-0.2-0.3-0.3c-0.5-0.4-1.1-0.8-1.7-1.1
		c-0.8-0.3-1.7-0.5-2.6-0.4c-0.9,0.1-1.7,0.3-2.5,0.7c-0.8,0.4-1.5,1-2,1.7c-0.6,0.7-1,1.5-1.2,2.4c-0.2,0.9-0.2,1.7-0.1,2.6
		c0,0.1,0,0.2-0.1,0.1c-4.9-0.7-8.9-2.5-12.2-6.2c-0.1-0.2-0.2-0.2-0.3,0c-1.4,2.2-0.7,5.6,1.1,7.3c0.2,0.2,0.5,0.5,0.8,0.7
		c-0.1,0-1.3-0.1-2.4-0.7c-0.1-0.1-0.2,0-0.2,0.1c0,0.2,0,0.4,0,0.7c0.3,2.2,1.8,4.2,3.9,5c0.2,0.1,0.5,0.2,0.8,0.2
		c-0.5,0.1-1,0.2-2.3,0.1c-0.2,0-0.2,0.1-0.2,0.2c1,2.8,3.2,3.6,4.9,4.1c0.2,0,0.4,0,0.7,0.1c0,0,0,0,0,0c-0.5,0.8-2.4,1.5-3.3,1.8
		c-1.6,0.6-3.4,0.8-5,0.6c-0.3,0-0.3,0-0.4,0c-0.1,0,0,0.1,0.1,0.2c0.3,0.2,0.7,0.4,1.1,0.6c1.1,0.6,2.2,1,3.4,1.4
		c6.1,1.7,12.9,0.4,17.5-4.1c3.6-3.6,4.8-8.5,4.8-13.4c0-0.2,0.2-0.3,0.4-0.4c0.9-0.7,1.7-1.5,2.4-2.5c0.2-0.2,0.2-0.4,0.2-0.5
		c0,0,0,0,0,0C1368.4,427.5,1368.4,427.5,1368.2,427.5z"/>
</g>
<g>
	
		<linearGradient id="SVGID_00000053532299958710356660000013883629205954789778_" gradientUnits="userSpaceOnUse" x1="476.5339" y1="-728.5271" x2="526.5296" y2="-678.5314" gradientTransform="matrix(0 1 -1 0 747.5074 -64.6495)">
		<stop  offset="0" style="stop-color:#6FC05E"/>
		<stop  offset="1" style="stop-color:#0BB25B"/>
	</linearGradient>
	<path style="fill:url(#SVGID_00000053532299958710356660000013883629205954789778_);" d="M1423.8,456.5v-39.2
		c0-4.2,3.4-7.6,7.6-7.6h39.2c4.2,0,7.6,3.4,7.6,7.6v39.2c0,4.2-3.4,7.6-7.6,7.6l-39.2,0C1427.2,464.1,1423.8,460.7,1423.8,456.5z"
		/>
	<path class="st1" d="M1436.3,452.3l2.3-8.5c-1.3-2.3-2-4.9-2-7.6c0-8.6,7-15.6,15.6-15.6c8.6,0,15.6,7,15.6,15.6
		c0,8.6-7,15.6-15.6,15.6c-2.6,0-5.1-0.7-7.4-1.9L1436.3,452.3z M1445.3,446.8l0.5,0.3c2,1.2,4.2,1.8,6.5,1.8
		c7,0,12.7-5.7,12.7-12.7c0-7-5.7-12.7-12.7-12.7c-7,0-12.7,5.7-12.7,12.7c0,2.3,0.6,4.6,1.9,6.6l0.3,0.5l-1.3,4.7L1445.3,446.8z"/>
	<path class="st4" d="M1458.1,438.4c-0.6-0.4-1.5-0.8-2.2-0.5c-0.6,0.2-1,1.1-1.3,1.6c-0.2,0.2-0.4,0.3-0.7,0.2
		c-2.2-0.9-3.9-2.3-5.1-4.3c-0.2-0.3-0.2-0.6,0.1-0.8c0.4-0.4,0.8-0.9,0.9-1.5c0.1-0.6-0.2-1.3-0.4-1.8c-0.3-0.7-0.6-1.6-1.3-2
		c-0.6-0.3-1.4-0.2-1.9,0.3c-0.9,0.8-1.4,1.9-1.4,3.1c0,0.3,0,0.7,0.1,1c0.2,0.8,0.5,1.5,1,2.2c0.3,0.5,0.6,1,1,1.5
		c1.2,1.6,2.6,3,4.3,4c0.8,0.5,1.7,1,2.7,1.3c1.1,0.3,2,0.7,3.1,0.5c1.2-0.2,2.4-1,2.8-2.1c0.1-0.3,0.2-0.7,0.1-1.1
		C1459.7,439.2,1458.7,438.8,1458.1,438.4z"/>
</g>
<linearGradient id="SVGID_00000078046031903860017910000003521868135292091522_" gradientUnits="userSpaceOnUse" x1="69.1323" y1="-255.3055" x2="964.9102" y2="640.4724" gradientTransform="matrix(0 1 -1 0 692.5843 -17.0216)">
	<stop  offset="0" style="stop-color:#4272B8"/>
	<stop  offset="0.1503" style="stop-color:#406DB5"/>
	<stop  offset="0.3948" style="stop-color:#3D60AC"/>
	<stop  offset="0.7011" style="stop-color:#394A9D"/>
	<stop  offset="1" style="stop-color:#342F8F"/>
</linearGradient>
<path style="fill:url(#SVGID_00000078046031903860017910000003521868135292091522_);" d="M429.7,950l-372.5,0
	c-3.9,0-7.2-3.2-7.2-7.2V57.2c0-3.9,3.2-7.2,7.2-7.2h885.6c3.9,0,7.2,3.2,7.2,7.2l0,885.6c0,3.9-3.2,7.2-7.2,7.2H570.3"/>
<g>
	<path class="st1" d="M569.9,951.2V648h104.2l19.8-129.3h-124v-83.9c0-35.4,17.3-69.8,72.9-69.8h56.4V254.9c0,0-51.2-8.7-100.1-8.7
		c-102.2,0-168.9,61.9-168.9,174v98.5H316.6V648h113.6v303.3"/>
</g>
<g>
	<path class="st4" d="M-580.5,533.7c-0.5,1.6-0.9,2.9-1.2,4.2c-20.1,78.6-22.3,96.1-42.9,132.5c-9.8,17.3-20.9,33.8-33.1,49.5
		c-1.4,1.8-2.7,4.1-5.4,3.5c-3-0.6-3.3-3.4-3.6-5.8c-3.3-23.9-5.1-47.8-4.3-71.9c1-31.4,4.9-42.2,45.4-212.4
		c0.6-2.6-0.1-4.8-0.9-7.1c-9.7-26.1-11.6-52.7-3.1-79.6c18.3-58.1,84.2-62.5,95.7-14.6c7.1,29.6-11.7,68.4-26.1,125.7
		c-11.9,47.3,43.7,80.9,91.3,46.4c43.9-31.8,60.9-108.1,57.7-162.2c-6.4-107.8-124.6-131.1-199.6-96.4
		c-86,39.8-105.6,146.4-66.7,195.1c4.9,6.2,8.7,10,7.1,16.3c-2.5,9.8-4.7,19.6-7.4,29.3c-2,7.2-8.1,9.8-15.3,6.9
		c-14.3-5.8-26.2-14.9-35.9-26.9c-33-40.8-42.4-121.6,1.2-190c48.3-75.8,138.2-106.4,220.2-97.1c98,11.1,159.9,78.1,171.5,154
		c5.3,34.6,1.5,119.9-47.1,180.2c-55.9,69.3-146.4,73.9-188.2,31.4C-574.8,541.5-577.3,537.6-580.5,533.7z"/>
</g>
</svg>
